<mxfile host="Electron" modified="2023-09-07T03:14:05.929Z" agent="Mozilla/5.0 (X11; Linux x86_64) AppleWebKit/537.36 (KHTML, like Gecko) draw.io/21.3.7 Chrome/112.0.5615.204 Electron/24.5.0 Safari/537.36" etag="hEGHeFzxTiSDtttJ5Gzf" version="21.3.7" type="device">
  <diagram name="Page-1" id="8n1YRNNRPJk1owFZoc6L">
    <mxGraphModel dx="5630" dy="3937" grid="1" gridSize="10" guides="1" tooltips="1" connect="1" arrows="1" fold="1" page="1" pageScale="1" pageWidth="850" pageHeight="1100" math="0" shadow="0">
      <root>
        <mxCell id="0" />
        <mxCell id="1" parent="0" />
        <mxCell id="8JmPRWkfUFFDfO5RH25s-65" style="edgeStyle=orthogonalEdgeStyle;rounded=0;orthogonalLoop=1;jettySize=auto;html=1;entryX=0;entryY=0.5;entryDx=0;entryDy=0;exitX=1;exitY=0.25;exitDx=0;exitDy=0;" edge="1" parent="1" source="8JmPRWkfUFFDfO5RH25s-3" target="8JmPRWkfUFFDfO5RH25s-9">
          <mxGeometry relative="1" as="geometry" />
        </mxCell>
        <mxCell id="8JmPRWkfUFFDfO5RH25s-67" style="edgeStyle=orthogonalEdgeStyle;rounded=0;orthogonalLoop=1;jettySize=auto;html=1;exitX=1;exitY=0;exitDx=0;exitDy=0;entryX=0;entryY=0.5;entryDx=0;entryDy=0;" edge="1" parent="1" source="8JmPRWkfUFFDfO5RH25s-3" target="8JmPRWkfUFFDfO5RH25s-97">
          <mxGeometry relative="1" as="geometry">
            <mxPoint x="850" y="-795" as="targetPoint" />
            <Array as="points">
              <mxPoint x="300" y="-490" />
              <mxPoint x="300" y="-795" />
              <mxPoint x="910" y="-795" />
            </Array>
          </mxGeometry>
        </mxCell>
        <mxCell id="8JmPRWkfUFFDfO5RH25s-73" style="edgeStyle=orthogonalEdgeStyle;rounded=0;orthogonalLoop=1;jettySize=auto;html=1;exitX=1;exitY=0.75;exitDx=0;exitDy=0;entryX=0.25;entryY=0;entryDx=0;entryDy=0;" edge="1" parent="1" source="8JmPRWkfUFFDfO5RH25s-3" target="8JmPRWkfUFFDfO5RH25s-40">
          <mxGeometry relative="1" as="geometry" />
        </mxCell>
        <mxCell id="8JmPRWkfUFFDfO5RH25s-74" style="edgeStyle=orthogonalEdgeStyle;rounded=0;orthogonalLoop=1;jettySize=auto;html=1;exitX=1;exitY=1;exitDx=0;exitDy=0;entryX=0;entryY=0;entryDx=0;entryDy=0;" edge="1" parent="1" source="8JmPRWkfUFFDfO5RH25s-3" target="8JmPRWkfUFFDfO5RH25s-40">
          <mxGeometry relative="1" as="geometry">
            <Array as="points">
              <mxPoint x="200" y="-380" />
            </Array>
          </mxGeometry>
        </mxCell>
        <mxCell id="8JmPRWkfUFFDfO5RH25s-3" value="&lt;font style=&quot;font-size: 17px;&quot;&gt;&lt;b&gt;云台部分C板&lt;/b&gt;&lt;/font&gt;" style="rounded=0;whiteSpace=wrap;html=1;" vertex="1" parent="1">
          <mxGeometry x="-220" y="-490" width="270" height="110" as="geometry" />
        </mxCell>
        <mxCell id="8JmPRWkfUFFDfO5RH25s-39" style="edgeStyle=orthogonalEdgeStyle;rounded=0;orthogonalLoop=1;jettySize=auto;html=1;entryX=0.25;entryY=1;entryDx=0;entryDy=0;fillColor=#e51400;strokeColor=#B20000;strokeWidth=3;" edge="1" parent="1" source="8JmPRWkfUFFDfO5RH25s-4" target="8JmPRWkfUFFDfO5RH25s-35">
          <mxGeometry relative="1" as="geometry" />
        </mxCell>
        <mxCell id="8JmPRWkfUFFDfO5RH25s-4" value="&lt;font style=&quot;font-size: 17px;&quot;&gt;&lt;b&gt;底盘部分C板&lt;/b&gt;&lt;/font&gt;" style="rounded=0;whiteSpace=wrap;html=1;" vertex="1" parent="1">
          <mxGeometry x="-270" y="760" width="270" height="110" as="geometry" />
        </mxCell>
        <mxCell id="8JmPRWkfUFFDfO5RH25s-20" style="edgeStyle=orthogonalEdgeStyle;rounded=0;orthogonalLoop=1;jettySize=auto;html=1;entryX=0.75;entryY=0;entryDx=0;entryDy=0;endArrow=none;endFill=0;startArrow=classic;startFill=1;fillColor=#e51400;strokeColor=#B20000;strokeWidth=3;" edge="1" parent="1" source="8JmPRWkfUFFDfO5RH25s-7" target="8JmPRWkfUFFDfO5RH25s-11">
          <mxGeometry relative="1" as="geometry" />
        </mxCell>
        <mxCell id="8JmPRWkfUFFDfO5RH25s-7" value="&lt;font style=&quot;font-size: 17px;&quot;&gt;&lt;b&gt;底盘&lt;br&gt;RoboMaster 电调中心板&amp;nbsp;&lt;/b&gt;&lt;/font&gt;" style="rounded=0;whiteSpace=wrap;html=1;" vertex="1" parent="1">
          <mxGeometry x="1490" y="840" width="270" height="110" as="geometry" />
        </mxCell>
        <mxCell id="8JmPRWkfUFFDfO5RH25s-9" value="&lt;font style=&quot;font-size: 17px;&quot;&gt;&lt;b&gt;发射机构&lt;br&gt;RoboMaster 电调中心板&amp;nbsp;&lt;/b&gt;&lt;/font&gt;" style="rounded=0;whiteSpace=wrap;html=1;" vertex="1" parent="1">
          <mxGeometry x="590" y="-640" width="270" height="110" as="geometry" />
        </mxCell>
        <mxCell id="8JmPRWkfUFFDfO5RH25s-14" style="edgeStyle=orthogonalEdgeStyle;rounded=0;orthogonalLoop=1;jettySize=auto;html=1;entryX=1;entryY=0.25;entryDx=0;entryDy=0;endArrow=none;endFill=0;" edge="1" parent="1" source="8JmPRWkfUFFDfO5RH25s-10" target="8JmPRWkfUFFDfO5RH25s-11">
          <mxGeometry relative="1" as="geometry" />
        </mxCell>
        <mxCell id="8JmPRWkfUFFDfO5RH25s-10" value="&lt;span style=&quot;font-size: 17px;&quot;&gt;&lt;b&gt;裁判系统主控模块&lt;/b&gt;&lt;/span&gt;" style="rounded=0;whiteSpace=wrap;html=1;" vertex="1" parent="1">
          <mxGeometry x="990" y="930" width="270" height="110" as="geometry" />
        </mxCell>
        <mxCell id="8JmPRWkfUFFDfO5RH25s-21" style="edgeStyle=orthogonalEdgeStyle;rounded=0;orthogonalLoop=1;jettySize=auto;html=1;fillColor=#e51400;strokeColor=#B20000;strokeWidth=3;exitX=0;exitY=0.25;exitDx=0;exitDy=0;" edge="1" parent="1" source="8JmPRWkfUFFDfO5RH25s-11" target="8JmPRWkfUFFDfO5RH25s-4">
          <mxGeometry relative="1" as="geometry" />
        </mxCell>
        <mxCell id="8JmPRWkfUFFDfO5RH25s-37" style="edgeStyle=orthogonalEdgeStyle;rounded=0;orthogonalLoop=1;jettySize=auto;html=1;fillColor=#e51400;strokeColor=#B20000;strokeWidth=3;entryX=0;entryY=0.5;entryDx=0;entryDy=0;" edge="1" parent="1" source="8JmPRWkfUFFDfO5RH25s-11" target="8JmPRWkfUFFDfO5RH25s-95">
          <mxGeometry relative="1" as="geometry">
            <mxPoint x="1270" y="430" as="targetPoint" />
            <Array as="points">
              <mxPoint x="510" y="643" />
              <mxPoint x="980" y="643" />
              <mxPoint x="980" y="635" />
            </Array>
          </mxGeometry>
        </mxCell>
        <mxCell id="8JmPRWkfUFFDfO5RH25s-38" style="edgeStyle=orthogonalEdgeStyle;rounded=0;orthogonalLoop=1;jettySize=auto;html=1;exitX=0.25;exitY=0;exitDx=0;exitDy=0;entryX=0.5;entryY=1;entryDx=0;entryDy=0;fillColor=#e51400;strokeColor=#B20000;strokeWidth=3;" edge="1" parent="1" source="8JmPRWkfUFFDfO5RH25s-11" target="8JmPRWkfUFFDfO5RH25s-35">
          <mxGeometry relative="1" as="geometry" />
        </mxCell>
        <mxCell id="8JmPRWkfUFFDfO5RH25s-51" style="edgeStyle=orthogonalEdgeStyle;rounded=0;orthogonalLoop=1;jettySize=auto;html=1;exitX=0.25;exitY=1;exitDx=0;exitDy=0;entryX=0;entryY=0.25;entryDx=0;entryDy=0;" edge="1" parent="1" source="8JmPRWkfUFFDfO5RH25s-11" target="8JmPRWkfUFFDfO5RH25s-35">
          <mxGeometry relative="1" as="geometry">
            <mxPoint x="-360" y="930" as="targetPoint" />
            <Array as="points">
              <mxPoint x="437" y="1190" />
              <mxPoint x="-510" y="1190" />
              <mxPoint x="-510" y="453" />
            </Array>
          </mxGeometry>
        </mxCell>
        <mxCell id="8JmPRWkfUFFDfO5RH25s-90" style="edgeStyle=orthogonalEdgeStyle;rounded=0;orthogonalLoop=1;jettySize=auto;html=1;exitX=0;exitY=0.75;exitDx=0;exitDy=0;entryX=0;entryY=0.5;entryDx=0;entryDy=0;" edge="1" parent="1" source="8JmPRWkfUFFDfO5RH25s-11" target="8JmPRWkfUFFDfO5RH25s-4">
          <mxGeometry relative="1" as="geometry">
            <Array as="points">
              <mxPoint x="-330" y="1142" />
              <mxPoint x="-330" y="805" />
            </Array>
          </mxGeometry>
        </mxCell>
        <mxCell id="8JmPRWkfUFFDfO5RH25s-108" style="edgeStyle=orthogonalEdgeStyle;rounded=0;orthogonalLoop=1;jettySize=auto;html=1;entryX=0;entryY=0.5;entryDx=0;entryDy=0;" edge="1" parent="1" source="8JmPRWkfUFFDfO5RH25s-11" target="8JmPRWkfUFFDfO5RH25s-107">
          <mxGeometry relative="1" as="geometry" />
        </mxCell>
        <mxCell id="8JmPRWkfUFFDfO5RH25s-110" style="edgeStyle=orthogonalEdgeStyle;rounded=0;orthogonalLoop=1;jettySize=auto;html=1;exitX=1;exitY=0.75;exitDx=0;exitDy=0;entryX=0;entryY=0.5;entryDx=0;entryDy=0;" edge="1" parent="1" source="8JmPRWkfUFFDfO5RH25s-11" target="8JmPRWkfUFFDfO5RH25s-109">
          <mxGeometry relative="1" as="geometry" />
        </mxCell>
        <mxCell id="8JmPRWkfUFFDfO5RH25s-11" value="&lt;span style=&quot;font-size: 17px;&quot;&gt;&lt;b&gt;电源管理模块&lt;/b&gt;&lt;/span&gt;" style="rounded=0;whiteSpace=wrap;html=1;" vertex="1" parent="1">
          <mxGeometry x="370" y="1060" width="270" height="110" as="geometry" />
        </mxCell>
        <mxCell id="8JmPRWkfUFFDfO5RH25s-13" style="edgeStyle=orthogonalEdgeStyle;rounded=0;orthogonalLoop=1;jettySize=auto;html=1;endArrow=classic;endFill=1;fillColor=#e51400;strokeColor=#B20000;strokeWidth=3;" edge="1" parent="1" source="8JmPRWkfUFFDfO5RH25s-12" target="8JmPRWkfUFFDfO5RH25s-11">
          <mxGeometry relative="1" as="geometry" />
        </mxCell>
        <mxCell id="8JmPRWkfUFFDfO5RH25s-12" value="&lt;span style=&quot;font-size: 17px;&quot;&gt;&lt;b&gt;电源&lt;/b&gt;&lt;/span&gt;" style="rounded=0;whiteSpace=wrap;html=1;" vertex="1" parent="1">
          <mxGeometry x="1010" y="1320" width="270" height="110" as="geometry" />
        </mxCell>
        <mxCell id="8JmPRWkfUFFDfO5RH25s-15" value="裁判系统航空线" style="text;html=1;align=center;verticalAlign=middle;resizable=0;points=[];autosize=1;strokeColor=none;fillColor=none;" vertex="1" parent="1">
          <mxGeometry x="650" y="1060" width="110" height="30" as="geometry" />
        </mxCell>
        <mxCell id="8JmPRWkfUFFDfO5RH25s-17" value="电源管理输入端" style="text;html=1;align=center;verticalAlign=middle;resizable=0;points=[];autosize=1;strokeColor=none;fillColor=none;" vertex="1" parent="1">
          <mxGeometry x="500" y="1170" width="110" height="30" as="geometry" />
        </mxCell>
        <mxCell id="8JmPRWkfUFFDfO5RH25s-22" value="MiniPC 供电" style="text;html=1;strokeColor=none;fillColor=none;align=center;verticalAlign=middle;whiteSpace=wrap;rounded=0;" vertex="1" parent="1">
          <mxGeometry x="280" y="1060" width="80" height="30" as="geometry" />
        </mxCell>
        <mxCell id="8JmPRWkfUFFDfO5RH25s-24" value="底盘供电" style="text;html=1;strokeColor=none;fillColor=none;align=center;verticalAlign=middle;whiteSpace=wrap;rounded=0;" vertex="1" parent="1">
          <mxGeometry x="560" y="1030" width="80" height="30" as="geometry" />
        </mxCell>
        <mxCell id="8JmPRWkfUFFDfO5RH25s-26" value="云台供电" style="text;html=1;strokeColor=none;fillColor=none;align=center;verticalAlign=middle;whiteSpace=wrap;rounded=0;" vertex="1" parent="1">
          <mxGeometry x="500" y="1030" width="80" height="30" as="geometry" />
        </mxCell>
        <mxCell id="8JmPRWkfUFFDfO5RH25s-61" style="edgeStyle=orthogonalEdgeStyle;rounded=0;orthogonalLoop=1;jettySize=auto;html=1;entryX=0.5;entryY=1;entryDx=0;entryDy=0;" edge="1" parent="1" source="8JmPRWkfUFFDfO5RH25s-29" target="8JmPRWkfUFFDfO5RH25s-60">
          <mxGeometry relative="1" as="geometry" />
        </mxCell>
        <mxCell id="8JmPRWkfUFFDfO5RH25s-62" style="edgeStyle=orthogonalEdgeStyle;rounded=0;orthogonalLoop=1;jettySize=auto;html=1;entryX=0;entryY=0.5;entryDx=0;entryDy=0;startArrow=classic;startFill=1;" edge="1" parent="1" source="8JmPRWkfUFFDfO5RH25s-29" target="8JmPRWkfUFFDfO5RH25s-3">
          <mxGeometry relative="1" as="geometry" />
        </mxCell>
        <mxCell id="8JmPRWkfUFFDfO5RH25s-29" value="&lt;span style=&quot;font-size: 17px;&quot;&gt;&lt;b&gt;MiniPC&lt;/b&gt;&lt;/span&gt;" style="rounded=0;whiteSpace=wrap;html=1;" vertex="1" parent="1">
          <mxGeometry x="-740" y="-410" width="270" height="110" as="geometry" />
        </mxCell>
        <mxCell id="8JmPRWkfUFFDfO5RH25s-31" value="发射机构供电" style="text;html=1;strokeColor=none;fillColor=none;align=center;verticalAlign=middle;whiteSpace=wrap;rounded=0;" vertex="1" parent="1">
          <mxGeometry x="360" y="1030" width="80" height="30" as="geometry" />
        </mxCell>
        <mxCell id="8JmPRWkfUFFDfO5RH25s-41" style="edgeStyle=orthogonalEdgeStyle;rounded=0;orthogonalLoop=1;jettySize=auto;html=1;endArrow=none;endFill=0;strokeWidth=3;" edge="1" parent="1" source="8JmPRWkfUFFDfO5RH25s-35" target="8JmPRWkfUFFDfO5RH25s-40">
          <mxGeometry relative="1" as="geometry" />
        </mxCell>
        <mxCell id="8JmPRWkfUFFDfO5RH25s-82" style="edgeStyle=orthogonalEdgeStyle;rounded=0;orthogonalLoop=1;jettySize=auto;html=1;exitX=0;exitY=0.75;exitDx=0;exitDy=0;endArrow=none;endFill=0;" edge="1" parent="1" source="8JmPRWkfUFFDfO5RH25s-35" target="8JmPRWkfUFFDfO5RH25s-4">
          <mxGeometry relative="1" as="geometry" />
        </mxCell>
        <mxCell id="8JmPRWkfUFFDfO5RH25s-100" style="edgeStyle=orthogonalEdgeStyle;rounded=0;orthogonalLoop=1;jettySize=auto;html=1;exitX=1;exitY=0.75;exitDx=0;exitDy=0;entryX=0.25;entryY=0;entryDx=0;entryDy=0;" edge="1" parent="1" source="8JmPRWkfUFFDfO5RH25s-35" target="8JmPRWkfUFFDfO5RH25s-95">
          <mxGeometry relative="1" as="geometry" />
        </mxCell>
        <mxCell id="8JmPRWkfUFFDfO5RH25s-35" value="&lt;font style=&quot;font-size: 19px;&quot;&gt;&lt;b&gt;底盘部分订制分线板&lt;/b&gt;&lt;/font&gt;" style="rounded=0;whiteSpace=wrap;html=1;" vertex="1" parent="1">
          <mxGeometry x="200" y="380" width="410" height="210" as="geometry" />
        </mxCell>
        <mxCell id="8JmPRWkfUFFDfO5RH25s-43" style="edgeStyle=orthogonalEdgeStyle;rounded=0;orthogonalLoop=1;jettySize=auto;html=1;entryX=0.5;entryY=1;entryDx=0;entryDy=0;exitX=1;exitY=0.75;exitDx=0;exitDy=0;fillColor=#e51400;strokeColor=#B20000;strokeWidth=3;" edge="1" parent="1" source="8JmPRWkfUFFDfO5RH25s-40" target="8JmPRWkfUFFDfO5RH25s-97">
          <mxGeometry relative="1" as="geometry">
            <mxPoint x="985" y="-740" as="targetPoint" />
          </mxGeometry>
        </mxCell>
        <mxCell id="8JmPRWkfUFFDfO5RH25s-44" style="edgeStyle=orthogonalEdgeStyle;rounded=0;orthogonalLoop=1;jettySize=auto;html=1;exitX=1;exitY=0.25;exitDx=0;exitDy=0;fillColor=#e51400;strokeColor=#B20000;strokeWidth=3;" edge="1" parent="1" source="8JmPRWkfUFFDfO5RH25s-40" target="8JmPRWkfUFFDfO5RH25s-9">
          <mxGeometry relative="1" as="geometry" />
        </mxCell>
        <mxCell id="8JmPRWkfUFFDfO5RH25s-47" style="edgeStyle=orthogonalEdgeStyle;rounded=0;orthogonalLoop=1;jettySize=auto;html=1;exitX=0;exitY=0.25;exitDx=0;exitDy=0;entryX=0.5;entryY=1;entryDx=0;entryDy=0;fillColor=#e51400;strokeColor=#B20000;strokeWidth=3;" edge="1" parent="1" source="8JmPRWkfUFFDfO5RH25s-40" target="8JmPRWkfUFFDfO5RH25s-3">
          <mxGeometry relative="1" as="geometry" />
        </mxCell>
        <mxCell id="8JmPRWkfUFFDfO5RH25s-49" style="edgeStyle=orthogonalEdgeStyle;rounded=0;orthogonalLoop=1;jettySize=auto;html=1;exitX=0;exitY=0.75;exitDx=0;exitDy=0;entryX=1;entryY=0.5;entryDx=0;entryDy=0;fillColor=#e51400;strokeColor=#B20000;strokeWidth=3;" edge="1" parent="1" source="8JmPRWkfUFFDfO5RH25s-40" target="8JmPRWkfUFFDfO5RH25s-48">
          <mxGeometry relative="1" as="geometry" />
        </mxCell>
        <mxCell id="8JmPRWkfUFFDfO5RH25s-56" style="edgeStyle=orthogonalEdgeStyle;rounded=0;orthogonalLoop=1;jettySize=auto;html=1;entryX=0.5;entryY=1;entryDx=0;entryDy=0;exitX=0.75;exitY=0;exitDx=0;exitDy=0;" edge="1" parent="1" source="8JmPRWkfUFFDfO5RH25s-40" target="8JmPRWkfUFFDfO5RH25s-55">
          <mxGeometry relative="1" as="geometry" />
        </mxCell>
        <mxCell id="8JmPRWkfUFFDfO5RH25s-40" value="&lt;font style=&quot;font-size: 19px;&quot;&gt;&lt;b&gt;云台部分订制分线板&lt;/b&gt;&lt;/font&gt;" style="rounded=0;whiteSpace=wrap;html=1;" vertex="1" parent="1">
          <mxGeometry x="200" y="-70" width="410" height="210" as="geometry" />
        </mxCell>
        <mxCell id="8JmPRWkfUFFDfO5RH25s-42" value="默孚龙24路导电滑环" style="text;html=1;align=center;verticalAlign=middle;resizable=0;points=[];autosize=1;strokeColor=none;fillColor=none;" vertex="1" parent="1">
          <mxGeometry x="410" y="260" width="130" height="30" as="geometry" />
        </mxCell>
        <mxCell id="8JmPRWkfUFFDfO5RH25s-45" value="云台供电" style="text;html=1;align=center;verticalAlign=middle;resizable=0;points=[];autosize=1;strokeColor=none;fillColor=none;" vertex="1" parent="1">
          <mxGeometry x="620" y="50" width="70" height="30" as="geometry" />
        </mxCell>
        <mxCell id="8JmPRWkfUFFDfO5RH25s-46" value="发射机构供电" style="text;html=1;align=center;verticalAlign=middle;resizable=0;points=[];autosize=1;strokeColor=none;fillColor=none;" vertex="1" parent="1">
          <mxGeometry x="620" y="-70" width="100" height="30" as="geometry" />
        </mxCell>
        <mxCell id="8JmPRWkfUFFDfO5RH25s-50" style="edgeStyle=orthogonalEdgeStyle;rounded=0;orthogonalLoop=1;jettySize=auto;html=1;entryX=0.5;entryY=1;entryDx=0;entryDy=0;fillColor=#e51400;strokeColor=#B20000;strokeWidth=3;" edge="1" parent="1" source="8JmPRWkfUFFDfO5RH25s-48" target="8JmPRWkfUFFDfO5RH25s-29">
          <mxGeometry relative="1" as="geometry" />
        </mxCell>
        <mxCell id="8JmPRWkfUFFDfO5RH25s-48" value="&lt;span style=&quot;font-size: 17px;&quot;&gt;&lt;b&gt;电压转换器&lt;br&gt;24V -&amp;gt; 19V&lt;br&gt;&lt;/b&gt;&lt;/span&gt;" style="rounded=0;whiteSpace=wrap;html=1;" vertex="1" parent="1">
          <mxGeometry x="-410" y="30" width="270" height="110" as="geometry" />
        </mxCell>
        <mxCell id="8JmPRWkfUFFDfO5RH25s-54" value="裁判系统航空线" style="text;html=1;align=center;verticalAlign=middle;resizable=0;points=[];autosize=1;strokeColor=none;fillColor=none;" vertex="1" parent="1">
          <mxGeometry x="335" y="1190" width="110" height="30" as="geometry" />
        </mxCell>
        <mxCell id="8JmPRWkfUFFDfO5RH25s-55" value="&lt;span style=&quot;font-size: 17px;&quot;&gt;&lt;b&gt;裁判系统设备&lt;/b&gt;&lt;/span&gt;" style="rounded=0;whiteSpace=wrap;html=1;" vertex="1" parent="1">
          <mxGeometry x="370" y="-370" width="270" height="110" as="geometry" />
        </mxCell>
        <mxCell id="8JmPRWkfUFFDfO5RH25s-57" value="C板供电口" style="text;html=1;align=center;verticalAlign=middle;resizable=0;points=[];autosize=1;strokeColor=none;fillColor=none;" vertex="1" parent="1">
          <mxGeometry x="90" y="-52" width="80" height="30" as="geometry" />
        </mxCell>
        <mxCell id="8JmPRWkfUFFDfO5RH25s-58" value="MiniPC供电口" style="text;html=1;align=center;verticalAlign=middle;resizable=0;points=[];autosize=1;strokeColor=none;fillColor=none;" vertex="1" parent="1">
          <mxGeometry x="50" y="88" width="100" height="30" as="geometry" />
        </mxCell>
        <mxCell id="8JmPRWkfUFFDfO5RH25s-59" value="裁判系统信号" style="text;html=1;align=center;verticalAlign=middle;resizable=0;points=[];autosize=1;strokeColor=none;fillColor=none;" vertex="1" parent="1">
          <mxGeometry x="550" y="-200" width="100" height="30" as="geometry" />
        </mxCell>
        <mxCell id="8JmPRWkfUFFDfO5RH25s-60" value="&lt;span style=&quot;font-size: 17px;&quot;&gt;&lt;b&gt;工业相机&lt;/b&gt;&lt;/span&gt;" style="rounded=0;whiteSpace=wrap;html=1;" vertex="1" parent="1">
          <mxGeometry x="-740" y="-750" width="270" height="110" as="geometry" />
        </mxCell>
        <mxCell id="8JmPRWkfUFFDfO5RH25s-64" value="microUSB端口" style="text;html=1;align=center;verticalAlign=middle;resizable=0;points=[];autosize=1;strokeColor=none;fillColor=none;" vertex="1" parent="1">
          <mxGeometry x="-325" y="-460" width="100" height="30" as="geometry" />
        </mxCell>
        <mxCell id="8JmPRWkfUFFDfO5RH25s-66" value="can2信号" style="text;html=1;align=center;verticalAlign=middle;resizable=0;points=[];autosize=1;strokeColor=none;fillColor=none;" vertex="1" parent="1">
          <mxGeometry x="60" y="-490" width="70" height="30" as="geometry" />
        </mxCell>
        <mxCell id="8JmPRWkfUFFDfO5RH25s-68" value="can1信号" style="text;html=1;align=center;verticalAlign=middle;resizable=0;points=[];autosize=1;strokeColor=none;fillColor=none;" vertex="1" parent="1">
          <mxGeometry x="60" y="-520" width="70" height="30" as="geometry" />
        </mxCell>
        <mxCell id="8JmPRWkfUFFDfO5RH25s-75" value="can1信号" style="text;html=1;strokeColor=none;fillColor=none;align=center;verticalAlign=middle;whiteSpace=wrap;rounded=0;" vertex="1" parent="1">
          <mxGeometry x="50" y="-440" width="70" height="30" as="geometry" />
        </mxCell>
        <mxCell id="8JmPRWkfUFFDfO5RH25s-76" value="can2信号" style="text;html=1;align=center;verticalAlign=middle;resizable=0;points=[];autosize=1;strokeColor=none;fillColor=none;" vertex="1" parent="1">
          <mxGeometry x="50" y="-410" width="70" height="30" as="geometry" />
        </mxCell>
        <mxCell id="8JmPRWkfUFFDfO5RH25s-79" value="can2信号端口" style="text;html=1;align=center;verticalAlign=middle;resizable=0;points=[];autosize=1;strokeColor=none;fillColor=none;" vertex="1" parent="1">
          <mxGeometry x="105" y="-100" width="100" height="30" as="geometry" />
        </mxCell>
        <mxCell id="8JmPRWkfUFFDfO5RH25s-80" value="can1信号端口" style="text;html=1;strokeColor=none;fillColor=none;align=center;verticalAlign=middle;whiteSpace=wrap;rounded=0;" vertex="1" parent="1">
          <mxGeometry x="220" y="-100" width="80" height="30" as="geometry" />
        </mxCell>
        <mxCell id="8JmPRWkfUFFDfO5RH25s-83" value="can2信号" style="text;html=1;align=center;verticalAlign=middle;resizable=0;points=[];autosize=1;strokeColor=none;fillColor=none;" vertex="1" parent="1">
          <mxGeometry x="130" y="500" width="70" height="30" as="geometry" />
        </mxCell>
        <mxCell id="8JmPRWkfUFFDfO5RH25s-84" value="can2信号" style="text;html=1;align=center;verticalAlign=middle;resizable=0;points=[];autosize=1;strokeColor=none;fillColor=none;" vertex="1" parent="1">
          <mxGeometry x="-130" y="720" width="70" height="30" as="geometry" />
        </mxCell>
        <mxCell id="8JmPRWkfUFFDfO5RH25s-85" value="供电端口" style="text;html=1;align=center;verticalAlign=middle;resizable=0;points=[];autosize=1;strokeColor=none;fillColor=none;" vertex="1" parent="1">
          <mxGeometry y="770" width="70" height="30" as="geometry" />
        </mxCell>
        <mxCell id="8JmPRWkfUFFDfO5RH25s-86" value="minPC供电端口" style="text;html=1;align=center;verticalAlign=middle;resizable=0;points=[];autosize=1;strokeColor=none;fillColor=none;" vertex="1" parent="1">
          <mxGeometry x="190" y="628" width="110" height="30" as="geometry" />
        </mxCell>
        <mxCell id="8JmPRWkfUFFDfO5RH25s-87" value="裁判系统端口" style="text;html=1;align=center;verticalAlign=middle;resizable=0;points=[];autosize=1;strokeColor=none;fillColor=none;" vertex="1" parent="1">
          <mxGeometry x="105" y="418" width="100" height="30" as="geometry" />
        </mxCell>
        <mxCell id="8JmPRWkfUFFDfO5RH25s-88" value="发射机构供电端口" style="text;html=1;align=center;verticalAlign=middle;resizable=0;points=[];autosize=1;strokeColor=none;fillColor=none;" vertex="1" parent="1">
          <mxGeometry x="300" y="628" width="120" height="30" as="geometry" />
        </mxCell>
        <mxCell id="8JmPRWkfUFFDfO5RH25s-89" value="云台供电端口" style="text;html=1;align=center;verticalAlign=middle;resizable=0;points=[];autosize=1;strokeColor=none;fillColor=none;" vertex="1" parent="1">
          <mxGeometry x="620" y="448" width="100" height="30" as="geometry" />
        </mxCell>
        <mxCell id="8JmPRWkfUFFDfO5RH25s-91" value="裁判系统串口信号线" style="text;html=1;align=center;verticalAlign=middle;resizable=0;points=[];autosize=1;strokeColor=none;fillColor=none;" vertex="1" parent="1">
          <mxGeometry x="240" y="1118" width="130" height="30" as="geometry" />
        </mxCell>
        <mxCell id="8JmPRWkfUFFDfO5RH25s-98" style="edgeStyle=orthogonalEdgeStyle;rounded=0;orthogonalLoop=1;jettySize=auto;html=1;entryX=0.563;entryY=1.022;entryDx=0;entryDy=0;entryPerimeter=0;strokeWidth=3;fillColor=#e51400;strokeColor=#B20000;" edge="1" parent="1" source="8JmPRWkfUFFDfO5RH25s-95" target="8JmPRWkfUFFDfO5RH25s-96">
          <mxGeometry relative="1" as="geometry">
            <Array as="points">
              <mxPoint x="1802" y="635" />
            </Array>
          </mxGeometry>
        </mxCell>
        <mxCell id="8JmPRWkfUFFDfO5RH25s-99" style="edgeStyle=orthogonalEdgeStyle;rounded=0;orthogonalLoop=1;jettySize=auto;html=1;exitX=0.5;exitY=0;exitDx=0;exitDy=0;entryX=1;entryY=0.5;entryDx=0;entryDy=0;strokeWidth=3;fillColor=#e51400;strokeColor=#B20000;" edge="1" parent="1" source="8JmPRWkfUFFDfO5RH25s-95" target="8JmPRWkfUFFDfO5RH25s-35">
          <mxGeometry relative="1" as="geometry" />
        </mxCell>
        <mxCell id="8JmPRWkfUFFDfO5RH25s-103" style="edgeStyle=orthogonalEdgeStyle;rounded=0;orthogonalLoop=1;jettySize=auto;html=1;exitX=0.75;exitY=0;exitDx=0;exitDy=0;entryX=0.25;entryY=1;entryDx=0;entryDy=0;" edge="1" parent="1" source="8JmPRWkfUFFDfO5RH25s-95" target="8JmPRWkfUFFDfO5RH25s-96">
          <mxGeometry relative="1" as="geometry" />
        </mxCell>
        <mxCell id="8JmPRWkfUFFDfO5RH25s-95" value="&lt;font style=&quot;font-size: 17px;&quot;&gt;&lt;b&gt;云台&lt;br&gt;RoboMaster 电调中心板&amp;nbsp;&lt;/b&gt;&lt;/font&gt;" style="rounded=0;whiteSpace=wrap;html=1;" vertex="1" parent="1">
          <mxGeometry x="1450" y="580" width="270" height="110" as="geometry" />
        </mxCell>
        <mxCell id="8JmPRWkfUFFDfO5RH25s-96" value="&lt;span style=&quot;font-size: 17px;&quot;&gt;&lt;b&gt;云台YAW轴6020电机&lt;/b&gt;&lt;/span&gt;" style="rounded=0;whiteSpace=wrap;html=1;" vertex="1" parent="1">
          <mxGeometry x="1650" y="230" width="270" height="110" as="geometry" />
        </mxCell>
        <mxCell id="8JmPRWkfUFFDfO5RH25s-97" value="&lt;span style=&quot;font-size: 17px;&quot;&gt;&lt;b&gt;云台PITCH轴6020电机&lt;/b&gt;&lt;/span&gt;" style="rounded=0;whiteSpace=wrap;html=1;" vertex="1" parent="1">
          <mxGeometry x="920" y="-850" width="270" height="110" as="geometry" />
        </mxCell>
        <mxCell id="8JmPRWkfUFFDfO5RH25s-101" value="can1信号" style="text;html=1;align=center;verticalAlign=middle;resizable=0;points=[];autosize=1;strokeColor=none;fillColor=none;" vertex="1" parent="1">
          <mxGeometry x="615" y="558" width="70" height="30" as="geometry" />
        </mxCell>
        <mxCell id="8JmPRWkfUFFDfO5RH25s-104" value="can1信号" style="text;html=1;align=center;verticalAlign=middle;resizable=0;points=[];autosize=1;strokeColor=none;fillColor=none;" vertex="1" parent="1">
          <mxGeometry x="1650" y="550" width="70" height="30" as="geometry" />
        </mxCell>
        <mxCell id="8JmPRWkfUFFDfO5RH25s-107" value="&lt;span style=&quot;font-size: 17px;&quot;&gt;&lt;b&gt;裁判系统场地交互模块&lt;/b&gt;&lt;/span&gt;" style="rounded=0;whiteSpace=wrap;html=1;" vertex="1" parent="1">
          <mxGeometry x="990" y="1060" width="270" height="110" as="geometry" />
        </mxCell>
        <mxCell id="8JmPRWkfUFFDfO5RH25s-109" value="&lt;span style=&quot;font-size: 17px;&quot;&gt;&lt;b&gt;裁判系统场地装甲板、灯条&lt;/b&gt;&lt;/span&gt;" style="rounded=0;whiteSpace=wrap;html=1;" vertex="1" parent="1">
          <mxGeometry x="990" y="1190" width="270" height="110" as="geometry" />
        </mxCell>
        <mxCell id="8JmPRWkfUFFDfO5RH25s-111" value="裁判系统航空线" style="text;html=1;align=center;verticalAlign=middle;resizable=0;points=[];autosize=1;strokeColor=none;fillColor=none;" vertex="1" parent="1">
          <mxGeometry x="650" y="1110" width="110" height="30" as="geometry" />
        </mxCell>
        <mxCell id="8JmPRWkfUFFDfO5RH25s-112" value="裁判系统航空线" style="text;html=1;align=center;verticalAlign=middle;resizable=0;points=[];autosize=1;strokeColor=none;fillColor=none;" vertex="1" parent="1">
          <mxGeometry x="650" y="1090" width="110" height="30" as="geometry" />
        </mxCell>
      </root>
    </mxGraphModel>
  </diagram>
</mxfile>
